<svg xmlns="http://www.w3.org/2000/svg" width="430" height="430" style="width:100%;height:100%;transform:translate3d(0,0,0);content-visibility:visible" viewBox="0 0 430 430"><defs><clipPath id="c"><path d="M0 0h430v430H0z"/></clipPath><clipPath id="o"><path d="M0 0h430v430H0z"/></clipPath><clipPath id="p"><path d="M0 0h430v430H0z"/></clipPath><clipPath id="n"><path d="M0 0h430v430H0z"/></clipPath><clipPath id="k"><path d="M0 0h430v430H0z"/></clipPath><clipPath id="m"><path d="M0 0h430v430H0z"/></clipPath><clipPath id="l"><path d="M0 0h430v430H0z"/></clipPath><clipPath id="i"><path d="M0 0h430v430H0z"/></clipPath><clipPath id="j"><path d="M0 0h430v430H0z"/></clipPath><clipPath id="g"><path d="M0 0h430v430H0z"/></clipPath><clipPath id="h"><path d="M0 0h430v430H0z"/></clipPath><clipPath id="f"><path d="M0 0h430v430H0z"/></clipPath><clipPath id="d"><path d="M0 0h430v430H0z"/></clipPath><filter id="a" width="100%" height="100%" x="0%" y="0%" filterUnits="objectBoundingBox"><feComponentTransfer in="SourceGraphic"><feFuncA tableValues="1.0 0.0" type="table"/></feComponentTransfer></filter><path id="b" style="display:none"/><mask id="e" mask-type="alpha"><g filter="url(#a)"><path fill="#fff" d="M0 0h430v430H0z" opacity="0"/><use xmlns:ns1="http://www.w3.org/1999/xlink" ns1:href="#b"/></g></mask></defs><g clip-path="url(#c)"><g clip-path="url(#d)" style="display:none"><g mask="url(#e)" style="display:none"><path fill="none" class="primary"/></g><g fill="none" style="display:none"><path class="secondary"/><path class="primary"/></g><path fill="none" class="primary" style="display:none"/></g><g fill="none" clip-path="url(#f)" style="display:none"><g style="display:none"><path class="secondary"/><path class="primary"/></g><g style="display:none"><path class="primary"/><path class="primary"/></g></g><g clip-path="url(#g)" style="display:none"><g fill="none" clip-path="url(#h)" style="display:none"><path class="primary" style="display:none"/><path class="primary" style="display:none"/><path class="primary" style="display:none"/><path class="primary" style="display:none"/><g style="display:none"><path class="primary"/><path class="primary"/></g><g style="display:none"><path class="primary"/><path class="primary"/><path class="primary"/></g></g></g><g clip-path="url(#i)" style="display:none"><g fill="none" clip-path="url(#j)" style="display:none"><path class="primary" style="display:none"/><path class="primary" style="display:none"/><path class="primary" style="display:none"/><path class="primary" style="display:none"/><g style="display:none"><path class="primary"/><path class="primary"/></g><g style="display:none"><path class="primary"/><path class="primary"/><path class="primary"/></g></g></g><g clip-path="url(#k)" style="display:none"><g clip-path="url(#l)" style="display:none"><path fill="none" class="primary" style="display:none"/></g><g clip-path="url(#m)" style="display:none"><path fill="none" class="primary" style="display:none"/></g></g><g clip-path="url(#n)" style="display:block"><path fill="none" stroke="#1562C6" stroke-linejoin="round" stroke-width="18" d="M97.5-112.321V-185H23.75c-38.66 0-70 31.34-70 70v75.357h-57.857v72.679h57.857V185h72.679V33.036h57.857l19.821-72.679H26.429v-52.678c0-11.046 8.954-20 20-20z" class="primary" style="display:block" transform="translate(215.107 215)"/></g><g clip-path="url(#o)" style="display:none"><g clip-path="url(#p)" style="display:none"><path fill="none" class="primary" style="display:none"/></g></g></g></svg>